<?xml version="1.0" standalone="no"?>
<!DOCTYPE svg PUBLIC "-//W3C//DTD SVG 20010904//EN"
 "http://www.w3.org/TR/2001/REC-SVG-20010904/DTD/svg10.dtd">
<svg version="1.0" xmlns="http://www.w3.org/2000/svg"
 width="500.000000pt" height="500.000000pt" viewBox="0 0 500.000000 500.000000"
 preserveAspectRatio="xMidYMid meet">
<metadata>
Created by potrace 1.11, written by Peter Selinger 2001-2013
</metadata>
<g transform="translate(0.000000,500.000000) scale(0.100000,-0.100000)"
fill="#000000" stroke="none">
<path d="M2157 4585 c-66 -26 -118 -70 -168 -137 -19 -26 -37 -48 -41 -48 -5
0 -8 -5 -8 -11 0 -6 -6 -16 -12 -23 -7 -7 -26 -30 -43 -51 -128 -162 -151
-190 -157 -193 -5 -2 -8 -8 -8 -13 0 -9 -27 -44 -62 -81 -10 -10 -18 -20 -18
-23 0 -3 -9 -15 -19 -27 -11 -13 -28 -34 -39 -48 -18 -22 -27 -25 -96 -25 -70
-1 -76 1 -76 20 -2 69 -9 202 -12 215 -6 25 -47 104 -66 125 -27 32 -88 75
-111 80 -12 2 -27 7 -34 12 -6 4 -19 9 -27 11 -26 6 -473 5 -506 0 -47 -9
-104 -31 -104 -41 0 -4 -4 -6 -8 -3 -14 9 -102 -91 -124 -141 -17 -39 -21 -73
-24 -172 -4 -129 -8 -140 -51 -147 -46 -7 -232 -153 -225 -176 1 -4 -2 -8 -7
-8 -15 0 -73 -122 -92 -194 -18 -67 -19 -138 -19 -1301 0 -1071 2 -1238 16
-1290 42 -166 143 -294 287 -365 129 -63 -20 -59 2187 -59 1114 0 2033 4 2055
9 22 4 51 11 65 14 50 11 166 77 213 122 65 61 119 147 148 236 l24 73 0 1245
c0 685 -3 1263 -6 1285 -16 100 -72 209 -149 286 -50 51 -131 109 -152 109 -8
0 -19 5 -25 11 -6 6 -19 12 -29 14 -11 2 -19 4 -19 5 0 1 -7 3 -15 5 -8 2 -26
7 -40 10 -14 4 -132 8 -262 9 l-237 2 -19 24 c-11 14 -29 36 -41 49 -12 13
-21 27 -21 30 0 3 -13 20 -28 37 -15 17 -36 43 -47 58 -11 15 -28 37 -38 49
-10 12 -44 56 -75 97 -32 41 -64 81 -72 90 -8 9 -41 51 -73 92 -70 91 -93 112
-161 147 l-51 26 -610 2 -611 2 -57 -24z m1221 -315 c46 -58 185 -237 205
-264 12 -16 42 -55 67 -86 25 -31 56 -72 70 -90 31 -41 71 -91 87 -108 7 -7
13 -16 13 -20 0 -4 18 -27 40 -52 22 -25 40 -48 40 -51 0 -4 125 -7 278 -7
152 0 297 -3 322 -6 75 -12 149 -77 176 -156 13 -38 12 -2437 -1 -2480 -17
-58 -57 -108 -110 -137 l-50 -28 -2015 0 -2015 0 -40 22 c-39 21 -117 93 -101
93 5 0 3 6 -3 14 -7 8 -14 25 -18 37 -3 13 -7 566 -8 1229 -2 1334 -5 1268 63
1337 45 45 70 60 114 69 18 3 302 6 630 6 l597 1 20 23 c12 13 21 29 21 34 0
6 4 10 8 10 7 0 52 56 87 108 6 9 17 23 25 32 8 10 26 32 40 50 14 18 78 101
143 184 159 204 159 205 183 235 l22 26 545 0 545 0 20 -25z m-2571 -212 c6 4
73 5 149 2 l139 -5 0 -72 c1 -43 -3 -74 -9 -76 -10 -3 -327 -1 -367 2 -12 1
-15 15 -15 74 1 72 1 72 31 78 17 3 37 2 46 -2 8 -4 20 -5 26 -1z"/>
<path d="M2986 3563 c-2 -3 -127 -7 -278 -9 -571 -9 -663 -11 -665 -19 -1 -4
-5 -11 -10 -14 -9 -6 -63 -99 -105 -181 -10 -19 -23 -42 -28 -50 -6 -8 -42
-73 -81 -145 -40 -71 -92 -166 -116 -210 -24 -44 -49 -92 -56 -107 -6 -16 -15
-28 -19 -28 -4 0 -8 -4 -8 -10 0 -5 -29 -62 -64 -125 -36 -63 -67 -124 -71
-135 -3 -11 -10 -20 -14 -20 -4 0 -13 -16 -21 -35 -8 -19 -17 -35 -22 -35 -4
0 -8 -9 -8 -20 0 -11 -3 -20 -7 -20 -5 0 -23 -31 -41 -69 l-33 -69 46 -79 c25
-43 64 -107 86 -142 21 -34 39 -67 39 -72 0 -4 8 -13 18 -18 9 -6 13 -11 9
-11 -4 0 8 -24 27 -54 19 -30 32 -57 29 -60 -4 -3 -1 -6 5 -6 7 0 21 -20 33
-45 12 -25 25 -45 30 -45 5 0 9 -5 9 -10 0 -6 19 -41 41 -78 23 -37 58 -94 78
-127 20 -33 41 -69 48 -80 7 -11 19 -35 28 -52 8 -18 20 -33 25 -33 6 0 10 -6
11 -12 0 -7 34 -67 74 -133 41 -66 82 -135 91 -153 l17 -33 17 28 c21 35 62
109 108 193 19 36 43 79 52 95 9 17 30 55 47 85 67 122 97 177 120 218 13 23
19 42 13 42 -5 0 -9 3 -8 8 2 4 -8 25 -21 47 -13 22 -22 40 -20 40 2 0 -6 11
-18 25 -13 13 -23 28 -23 32 0 8 -35 67 -78 134 -6 10 -15 26 -19 34 -3 8 -19
34 -34 56 -16 23 -25 44 -22 48 4 3 2 6 -4 6 -5 0 -18 18 -29 40 -10 22 -22
40 -25 40 -3 0 -11 16 -19 35 -8 19 -17 35 -22 35 -4 0 -8 7 -8 16 0 8 -4 13
-9 9 -11 -6 -4 47 7 55 7 5 35 55 71 125 9 17 19 32 24 33 4 2 7 7 7 12 0 13
92 174 104 182 6 4 7 8 3 8 -4 0 4 17 18 37 14 21 25 43 25 50 0 7 5 13 11 13
5 0 8 4 5 8 -3 5 3 18 14 29 10 12 16 24 13 27 -4 3 -1 6 5 6 7 0 11 3 10 8
-1 4 5 19 12 35 12 24 18 27 69 28 667 7 676 7 687 -10 6 -9 12 -20 13 -26 1
-5 12 -20 24 -33 12 -13 22 -27 21 -30 -1 -4 10 -25 24 -46 13 -22 30 -53 38
-70 7 -17 13 -26 14 -21 0 11 56 -88 66 -117 4 -10 10 -18 14 -18 4 0 10 -8
13 -17 4 -10 17 -36 31 -58 49 -79 100 -170 102 -182 1 -7 -3 -16 -10 -20 -7
-5 -32 -44 -55 -88 -36 -67 -76 -138 -121 -215 -5 -8 -23 -42 -41 -75 -17 -33
-34 -62 -38 -65 -3 -3 -15 -23 -26 -45 -11 -22 -24 -43 -30 -47 -5 -4 -6 -8
-1 -8 4 0 -3 -15 -16 -32 -23 -32 -27 -68 -7 -68 5 0 9 -4 9 -9 0 -5 23 -46
51 -91 28 -45 59 -97 69 -115 32 -56 45 -79 53 -89 19 -27 57 -87 57 -91 0 -3
16 -29 35 -59 19 -30 35 -59 35 -63 1 -4 14 -23 29 -41 l29 -34 17 36 c10 20
21 36 26 36 5 0 8 3 7 8 -2 9 21 65 30 72 4 3 18 28 32 55 14 28 28 52 33 53
4 2 7 8 7 13 0 5 23 51 51 101 28 51 64 117 80 146 16 28 42 76 59 106 50 92
80 147 128 236 25 47 48 87 51 90 9 8 45 84 43 93 -1 4 2 7 6 7 5 0 19 23 32
50 13 28 27 50 32 50 4 0 8 6 8 13 0 6 11 33 25 58 l24 46 -44 73 c-25 39 -45
76 -45 81 0 5 -4 9 -10 9 -5 0 -10 7 -10 15 0 8 -4 15 -10 15 -5 0 -10 5 -10
11 0 6 -31 63 -70 126 -38 63 -70 119 -70 124 0 5 -4 9 -9 9 -5 0 -11 8 -14
18 -6 19 -39 74 -48 82 -4 3 -17 23 -28 45 -27 49 -44 78 -51 85 -5 5 -22 33
-47 80 -8 14 -23 39 -33 55 -11 17 -27 45 -37 63 -9 17 -21 32 -25 32 -5 0 -6
5 -3 10 3 6 3 10 -2 10 -4 0 -14 14 -21 30 -8 17 -19 36 -25 43 -7 6 -23 32
-36 57 -13 25 -29 52 -36 60 -6 8 -24 36 -39 63 -15 26 -29 47 -32 47 -3 0 -2
-5 2 -12 5 -8 3 -8 -7 -2 -16 10 -419 13 -419 3 0 -4 -16 -3 -34 1 -19 4 -37
6 -40 3z"/>
</g>
</svg>
